<svg xmlns="http://www.w3.org/2000/svg" xmlns:xlink="http://www.w3.org/1999/xlink" width="1985.28" height="639.48" viewBox="0 0 1985.28 639.48"><defs><style>.cls-1{fill:url(#linear-gradient);}.cls-2{fill:url(#linear-gradient-2);}.cls-3{fill:#00dfef;}.cls-4{fill:#fff;}</style><linearGradient id="linear-gradient" x1="116.58" y1="319.74" x2="540.51" y2="319.74" gradientUnits="userSpaceOnUse"><stop offset="0.05" stop-color="#00dfef"/><stop offset="0.08" stop-color="#00cfde"/><stop offset="0.18" stop-color="#009fab"/><stop offset="0.28" stop-color="#00757d"/><stop offset="0.38" stop-color="#005157"/><stop offset="0.49" stop-color="#003337"/><stop offset="0.6" stop-color="#001d1f"/><stop offset="0.72" stop-color="#000d0e"/><stop offset="0.85" stop-color="#000303"/><stop offset="1"/></linearGradient><linearGradient id="linear-gradient-2" x1="654.18" y1="1129.05" x2="1078.12" y2="1129.05" gradientTransform="translate(1177.08 1448.79) rotate(180)" xlink:href="#linear-gradient"/></defs><title>logo_full_light</title><g id="Layer_2" data-name="Layer 2"><g id="_2" data-name="2"><rect class="cls-1" y="267.33" width="274.63" height="104.82"/><path class="cls-2" d="M639.47,267.33H364.84V372.15H534.66A104.81,104.81,0,0,0,639.47,267.33Z"/><path class="cls-3" d="M534.66,0H0V639.48H374.06V104.82h160.6V372.15h0A104.81,104.81,0,0,0,639.47,267.33V104.82A104.81,104.81,0,0,0,534.66,0ZM104.82,104.82H269.24V534.66H104.82Z"/><path class="cls-4" d="M808.81,282a18.8,18.8,0,0,1-.33,3.73,7.93,7.93,0,0,1-1.05,2.75,5.2,5.2,0,0,1-1.7,1.7,4.08,4.08,0,0,1-2.1.56H705.55a10.37,10.37,0,0,1-6-2.18c-2.06-1.46-3.08-4.13-3.08-8v-189c0-3.88,1-6.55,3.08-8a10.3,10.3,0,0,1,6-2.18h96.62a4.15,4.15,0,0,1,2.1.56,4.51,4.51,0,0,1,1.62,1.7,9.11,9.11,0,0,1,1,2.83,21.12,21.12,0,0,1,.33,4,18.77,18.77,0,0,1-.33,3.72,8,8,0,0,1-1,2.67,4.57,4.57,0,0,1-1.62,1.62,4.06,4.06,0,0,1-2.1.57H716.23v73.63h74.13a4.39,4.39,0,0,1,2.26.57,4.65,4.65,0,0,1,1.62,1.62,8.31,8.31,0,0,1,1,2.75,21,21,0,0,1,.32,4,17.52,17.52,0,0,1-.32,3.64,7.19,7.19,0,0,1-1,2.51,4.11,4.11,0,0,1-1.62,1.46,5,5,0,0,1-2.26.48H716.23v83.51h87.4a4.09,4.09,0,0,1,2.1.57,5.43,5.43,0,0,1,1.7,1.62,7.15,7.15,0,0,1,1.05,2.75A20.94,20.94,0,0,1,808.81,282Z"/><path class="cls-4" d="M986.78,234.14a59.47,59.47,0,0,1-5,24.92,53,53,0,0,1-14.08,18.69,62.81,62.81,0,0,1-21.53,11.74,87.77,87.77,0,0,1-27.18,4A92.39,92.39,0,0,1,900,291.67a110.14,110.14,0,0,1-15.86-4.45A84.1,84.1,0,0,1,872.44,282a29.71,29.71,0,0,1-6.56-4.53,11.24,11.24,0,0,1-2.59-4.37,20.55,20.55,0,0,1-.8-6.23,25.76,25.76,0,0,1,.32-4.53,10.57,10.57,0,0,1,.89-2.91,3.1,3.1,0,0,1,1.46-1.54,4.42,4.42,0,0,1,1.86-.41q2.26,0,6.39,2.84a94.56,94.56,0,0,0,10.68,6.15,101.74,101.74,0,0,0,15.7,6.15,72,72,0,0,0,21.28,2.83,58.69,58.69,0,0,0,18.13-2.67,42.05,42.05,0,0,0,14.24-7.69,34.22,34.22,0,0,0,9.3-12.38,40.39,40.39,0,0,0,3.32-16.75,31.59,31.59,0,0,0-4.21-16.67A44,44,0,0,0,950.77,207a93.81,93.81,0,0,0-15.62-9.55q-8.74-4.28-17.88-8.57t-17.89-9.31a77,77,0,0,1-15.61-11.73,53.13,53.13,0,0,1-11.09-15.78q-4.21-9.06-4.21-21.53a52.14,52.14,0,0,1,4.37-21.76,46.17,46.17,0,0,1,12.3-16.35,55.22,55.22,0,0,1,19-10.27,79.1,79.1,0,0,1,24.35-3.56A71.94,71.94,0,0,1,942,79.91a100.2,100.2,0,0,1,12.86,3.32,73.52,73.52,0,0,1,10.85,4.53,29.28,29.28,0,0,1,6.31,4,12.91,12.91,0,0,1,1.94,2.27,9.36,9.36,0,0,1,.73,1.86,16.94,16.94,0,0,1,.48,2.67,36.63,36.63,0,0,1,.17,3.81,27.22,27.22,0,0,1-.25,3.8,12.35,12.35,0,0,1-.73,2.91A4.73,4.73,0,0,1,973.1,111a2.43,2.43,0,0,1-1.7.65c-1.19,0-3-.78-5.42-2.35S960.5,106,956.84,104a76.79,76.79,0,0,0-13.11-5.26,59,59,0,0,0-17.32-2.34A48.64,48.64,0,0,0,909.74,99a33.41,33.41,0,0,0-11.81,7,28.63,28.63,0,0,0-7,10.43,34.25,34.25,0,0,0-2.35,12.63,31.59,31.59,0,0,0,4.21,16.67,44.44,44.44,0,0,0,11.17,12.3,91.29,91.29,0,0,0,15.77,9.63q8.82,4.29,18,8.57t18,9.23a76,76,0,0,1,15.78,11.65,52.74,52.74,0,0,1,11.17,15.7Q986.77,221.84,986.78,234.14Z"/><path class="cls-4" d="M1176.89,141.41a70.24,70.24,0,0,1-4.94,26.7A59,59,0,0,1,1157.79,189a64.38,64.38,0,0,1-22.5,13.59q-13.27,4.86-32,4.86h-27.19v80.11a3.44,3.44,0,0,1-.48,1.78,3.36,3.36,0,0,1-1.62,1.29,14.4,14.4,0,0,1-3,.81,35.12,35.12,0,0,1-9.46,0,14.13,14.13,0,0,1-3.08-.81,3.32,3.32,0,0,1-1.62-1.29,3.44,3.44,0,0,1-.48-1.78v-196q0-5.82,3.07-8a10.35,10.35,0,0,1,6-2.18h42.56q6.32,0,12.3.56a108.63,108.63,0,0,1,14,2.43,55.61,55.61,0,0,1,16.35,7,53.59,53.59,0,0,1,14.16,12.46,54.81,54.81,0,0,1,9,16.83A65.57,65.57,0,0,1,1176.89,141.41ZM1156,143.19q0-13.6-5.34-23.06t-13-14.08a43,43,0,0,0-16-5.83A109.64,109.64,0,0,0,1105.84,99h-29.78v91h28.48q13.76,0,23-3.48a44.39,44.39,0,0,0,15.54-9.63,40.6,40.6,0,0,0,9.63-14.81A52.3,52.3,0,0,0,1156,143.19Z"/><path class="cls-4" d="M1418.62,183.65q0,25.08-5.75,45.39t-17.23,34.64a76.25,76.25,0,0,1-29,22.09q-17.48,7.75-40.78,7.76t-40.06-7.36a70.39,70.39,0,0,1-27.51-21q-10.77-13.67-15.86-33.42t-5.1-44.5q0-24.6,5.67-44.67t17.23-34.23a77.67,77.67,0,0,1,29-21.93q17.4-7.77,40.86-7.76,22.83,0,39.49,7.28a71.54,71.54,0,0,1,27.6,20.87q10.92,13.61,16.18,33T1418.62,183.65Zm-21,1.78a166.52,166.52,0,0,0-3.48-34.88,81.47,81.47,0,0,0-11.49-28.32,56,56,0,0,0-21.28-18.93q-13.27-6.89-32.85-6.88t-32.78,7.2A60.93,60.93,0,0,0,1274,123a80.77,80.77,0,0,0-12,28.32,155.05,155.05,0,0,0-3.64,34.15,179.55,179.55,0,0,0,3.32,35.52A80.87,80.87,0,0,0,1273,249.51a55,55,0,0,0,21.2,19q13.26,6.89,33.17,6.88,19.74,0,33.18-7.37a60.71,60.71,0,0,0,21.69-19.74A83.09,83.09,0,0,0,1394,219.66,160,160,0,0,0,1397.58,185.43Z"/><path class="cls-4" d="M1623.62,287.22a4.25,4.25,0,0,1-.41,1.94,3.22,3.22,0,0,1-1.53,1.38,11.34,11.34,0,0,1-3.16.89,34,34,0,0,1-5.1.32,37,37,0,0,1-4.61-.24,8.64,8.64,0,0,1-3.16-1,6.11,6.11,0,0,1-2.1-1.94,13.19,13.19,0,0,1-1.46-3.16l-19.58-50.81q-3.39-8.58-7.28-16.19a52.84,52.84,0,0,0-9.39-13.19,40,40,0,0,0-13.27-8.82A48.43,48.43,0,0,0,1534,193.2h-21.69v94.35a3.44,3.44,0,0,1-.48,1.78,3.36,3.36,0,0,1-1.62,1.29,14.46,14.46,0,0,1-3,.81,35.19,35.19,0,0,1-9.47,0,14.29,14.29,0,0,1-3.08-.81,3.29,3.29,0,0,1-1.61-1.29,3.36,3.36,0,0,1-.49-1.78v-196q0-5.82,3.07-8a10.35,10.35,0,0,1,6-2.18h39.33q7.77,0,12.86.4t9.31,1a71.16,71.16,0,0,1,20.88,6.8,49,49,0,0,1,14.72,11.57,45.88,45.88,0,0,1,8.66,15.54,59.7,59.7,0,0,1,2.83,18.69,55,55,0,0,1-2.91,18.53,45.12,45.12,0,0,1-8.25,14.4,52.86,52.86,0,0,1-12.79,10.77,84.22,84.22,0,0,1-16.34,7.6,42.77,42.77,0,0,1,9.63,6,46.88,46.88,0,0,1,7.93,8.58,80.53,80.53,0,0,1,6.87,11.57q3.24,6.55,6.48,14.64l19.58,48.88q2.1,5.67,2.67,7.77A13.26,13.26,0,0,1,1623.62,287.22Zm-34.8-149.7q0-13.43-6-22.73t-20.06-13.36a63,63,0,0,0-10.2-1.86q-5.5-.55-14.4-.56h-25.9v76.87h30.11a64.48,64.48,0,0,0,20.87-3,41.1,41.1,0,0,0,14.49-8.17,31.32,31.32,0,0,0,8.41-12.14A41.6,41.6,0,0,0,1588.82,137.52Z"/><path class="cls-4" d="M1818.1,90.43a18.77,18.77,0,0,1-.33,3.72,8.24,8.24,0,0,1-1,2.67,4.57,4.57,0,0,1-1.62,1.62,4.09,4.09,0,0,1-2.1.57h-62.47V287.55a3.36,3.36,0,0,1-.49,1.78,3.29,3.29,0,0,1-1.61,1.29,14.29,14.29,0,0,1-3.08.81,34.6,34.6,0,0,1-9.39,0,14.18,14.18,0,0,1-3.07-.81,3.27,3.27,0,0,1-1.62-1.29,3.44,3.44,0,0,1-.48-1.78V99H1668.4a4,4,0,0,1-2.19-.57,4.91,4.91,0,0,1-1.54-1.62,8.24,8.24,0,0,1-1-2.67,19.61,19.61,0,0,1-.32-3.72,22.07,22.07,0,0,1,.32-4,9.38,9.38,0,0,1,1-2.83,4.83,4.83,0,0,1,1.54-1.7,4,4,0,0,1,2.19-.56h144.68a4.18,4.18,0,0,1,2.1.56,4.51,4.51,0,0,1,1.62,1.7,9.38,9.38,0,0,1,1,2.83A21.12,21.12,0,0,1,1818.1,90.43Z"/><path class="cls-4" d="M1981.34,234.14a59.47,59.47,0,0,1-5,24.92,52.92,52.92,0,0,1-14.08,18.69,62.86,62.86,0,0,1-21.52,11.74,87.88,87.88,0,0,1-27.19,4,92.53,92.53,0,0,1-18.94-1.86,110.14,110.14,0,0,1-15.86-4.45A84.1,84.1,0,0,1,1867,282a29.59,29.59,0,0,1-6.55-4.53,11.12,11.12,0,0,1-2.59-4.37,20.52,20.52,0,0,1-.81-6.23,25.76,25.76,0,0,1,.32-4.53,10.92,10.92,0,0,1,.89-2.91,3.1,3.1,0,0,1,1.46-1.54,4.42,4.42,0,0,1,1.86-.41q2.26,0,6.39,2.84a94.56,94.56,0,0,0,10.68,6.15,101.74,101.74,0,0,0,15.7,6.15,72,72,0,0,0,21.28,2.83,58.65,58.65,0,0,0,18.13-2.67,42,42,0,0,0,14.24-7.69,34.35,34.35,0,0,0,9.31-12.38,40.39,40.39,0,0,0,3.31-16.75,31.68,31.68,0,0,0-4.2-16.67A44.23,44.23,0,0,0,1945.33,207a93.81,93.81,0,0,0-15.62-9.55q-8.73-4.28-17.88-8.57T1894,179.6a76.82,76.82,0,0,1-15.62-11.73,53.13,53.13,0,0,1-11.09-15.78q-4.2-9.06-4.2-21.53a52,52,0,0,1,4.37-21.76,46.05,46.05,0,0,1,12.3-16.35,55.08,55.08,0,0,1,19-10.27,79.12,79.12,0,0,1,24.36-3.56,71.91,71.91,0,0,1,13.43,1.29,100.79,100.79,0,0,1,12.87,3.32,73.84,73.84,0,0,1,10.84,4.53,29.28,29.28,0,0,1,6.31,4,12.91,12.91,0,0,1,1.94,2.27,9.36,9.36,0,0,1,.73,1.86,15.8,15.8,0,0,1,.49,2.67c.1,1,.16,2.3.16,3.81a27.31,27.31,0,0,1-.24,3.8,13.41,13.41,0,0,1-.73,2.91,4.86,4.86,0,0,1-1.22,1.86,2.43,2.43,0,0,1-1.7.65c-1.19,0-3-.78-5.42-2.35s-5.48-3.31-9.14-5.26a76.79,76.79,0,0,0-13.11-5.26A58.87,58.87,0,0,0,1921,96.42,48.68,48.68,0,0,0,1904.3,99a33.41,33.41,0,0,0-11.81,7,28.63,28.63,0,0,0-7,10.43,34.25,34.25,0,0,0-2.35,12.63,31.59,31.59,0,0,0,4.21,16.67,44.6,44.6,0,0,0,11.17,12.3,91.39,91.39,0,0,0,15.78,9.63q8.82,4.29,18,8.57t18,9.23A76,76,0,0,1,1966,197.16a52.74,52.74,0,0,1,11.17,15.7Q1981.33,221.84,1981.34,234.14Z"/><path class="cls-3" d="M840.76,412.66q0,17.49-5.46,31a59.58,59.58,0,0,1-15.87,22.69,70.07,70.07,0,0,1-25.59,14q-15.15,4.8-35.68,4.81H740.84V551.4a4.46,4.46,0,0,1-1.05,2.89,7.28,7.28,0,0,1-3.44,2.08,33.41,33.41,0,0,1-6.42,1.28,109.15,109.15,0,0,1-20.45,0,33.32,33.32,0,0,1-6.49-1.28,6.73,6.73,0,0,1-3.37-2.08,4.72,4.72,0,0,1-1-2.89V364.71c0-5,1.3-8.79,3.93-11.31a14.3,14.3,0,0,1,10.34-3.77h48.92q7.36,0,14,.56a149.31,149.31,0,0,1,16,2.41,70.5,70.5,0,0,1,18.85,6.82A55.91,55.91,0,0,1,827,372a52.31,52.31,0,0,1,10.27,17.8A69.59,69.59,0,0,1,840.76,412.66Zm-44.11,3q0-10.9-3.85-18a26.56,26.56,0,0,0-9.46-10.43,31.45,31.45,0,0,0-11.79-4.25,91.37,91.37,0,0,0-12.75-.88h-18V452.6h18.92q10.11,0,16.92-2.73a28.85,28.85,0,0,0,11.15-7.61,33,33,0,0,0,6.58-11.71A47.4,47.4,0,0,0,796.65,415.71Z"/><path class="cls-3" d="M1032.05,551.72a6.36,6.36,0,0,1-.64,3,5.14,5.14,0,0,1-3.05,2,30.41,30.41,0,0,1-7.06,1.12q-4.65.33-12.67.32c-4.49,0-8.07-.1-10.75-.32a23.55,23.55,0,0,1-6.33-1.2,6.87,6.87,0,0,1-3.29-2.24,12.44,12.44,0,0,1-1.6-3.29l-18.61-46.35q-3.36-7.86-6.57-14a44.45,44.45,0,0,0-7.14-10.18,26,26,0,0,0-9.06-6.18,31.4,31.4,0,0,0-11.87-2.08H920.26V551.4a4.46,4.46,0,0,1-1,2.89,7.28,7.28,0,0,1-3.44,2.08,33.41,33.41,0,0,1-6.42,1.28,109.15,109.15,0,0,1-20.45,0,33.32,33.32,0,0,1-6.49-1.28,6.73,6.73,0,0,1-3.37-2.08,4.72,4.72,0,0,1-1-2.89V362.94q0-7.05,3.6-10.18a13.12,13.12,0,0,1,8.91-3.13h53.73q8.17,0,13.47.32c3.53.22,6.73.48,9.62.8a87.59,87.59,0,0,1,22.54,6.1,54.11,54.11,0,0,1,17,11.31,47.08,47.08,0,0,1,10.66,16.52,60.4,60.4,0,0,1,3.69,21.89,64.13,64.13,0,0,1-2.65,19,48.61,48.61,0,0,1-7.77,15.31,51.34,51.34,0,0,1-12.67,11.71,68.41,68.41,0,0,1-17.17,8,48.64,48.64,0,0,1,8.75,5.45,46.12,46.12,0,0,1,7.69,7.78,74.35,74.35,0,0,1,6.82,10.43,135.41,135.41,0,0,1,6.26,13.23l17.48,40.9q2.4,6.09,3.21,8.9A17.37,17.37,0,0,1,1032.05,551.72ZM977.68,410.9q0-10.26-4.66-17.32t-15.23-9.95a59.18,59.18,0,0,0-7.3-1.28,102.84,102.84,0,0,0-11.31-.48H920.26v58.86h21.49a51.58,51.58,0,0,0,15.72-2.16,31.43,31.43,0,0,0,11.22-6.1,24.86,24.86,0,0,0,6.74-9.38A31.67,31.67,0,0,0,977.68,410.9Z"/><path class="cls-3" d="M1251.08,451q0,25.81-6.41,46.19t-19.09,34.56a82.18,82.18,0,0,1-31.35,21.65q-18.69,7.47-43.23,7.46-24.23,0-42.26-6.33a73.33,73.33,0,0,1-30.07-19.33q-12-13-18.05-33t-6-47.47q0-25.18,6.41-45.31t19.09-34.25a83.48,83.48,0,0,1,31.36-21.65q18.67-7.53,43.38-7.54,23.58,0,41.62,6.26a73.17,73.17,0,0,1,30.15,19.24q12.12,13,18.29,32.8T1251.08,451Zm-44.26,2.24a158.69,158.69,0,0,0-2.57-29.75,64.14,64.14,0,0,0-8.74-22.94,41.88,41.88,0,0,0-16.44-14.75q-10.27-5.21-25.66-5.21-15.57,0-26,5.85a47.91,47.91,0,0,0-16.84,15.64,64.84,64.84,0,0,0-9.06,22.85,139.64,139.64,0,0,0-2.64,27.67,165.05,165.05,0,0,0,2.56,30.55,65.88,65.88,0,0,0,8.66,23.18A39.8,39.8,0,0,0,1126.46,521q10.26,5,25.82,5t26-5.78a46.59,46.59,0,0,0,16.84-15.71,66.37,66.37,0,0,0,9.06-23.18A143.67,143.67,0,0,0,1206.82,453.24Z"/><path class="cls-3" d="M1433.23,412.66q0,17.49-5.46,31a59.58,59.58,0,0,1-15.87,22.69,70.07,70.07,0,0,1-25.59,14q-15.15,4.8-35.68,4.81h-17.32V551.4a4.46,4.46,0,0,1-1,2.89,7.28,7.28,0,0,1-3.44,2.08,33.41,33.41,0,0,1-6.42,1.28,109.15,109.15,0,0,1-20.45,0,33.16,33.16,0,0,1-6.49-1.28,6.73,6.73,0,0,1-3.37-2.08,4.72,4.72,0,0,1-1-2.89V364.71c0-5,1.3-8.79,3.92-11.31a14.34,14.34,0,0,1,10.35-3.77h48.92q7.37,0,14,.56a149.31,149.31,0,0,1,16,2.41,70.5,70.5,0,0,1,18.85,6.82A55.91,55.91,0,0,1,1419.43,372a52.31,52.31,0,0,1,10.27,17.8A69.59,69.59,0,0,1,1433.23,412.66Zm-44.11,3q0-10.9-3.85-18a26.56,26.56,0,0,0-9.46-10.43,31.52,31.52,0,0,0-11.79-4.25,91.37,91.37,0,0,0-12.75-.88h-18V452.6h18.92q10.11,0,16.92-2.73a28.85,28.85,0,0,0,11.15-7.61,33,33,0,0,0,6.58-11.71A47.4,47.4,0,0,0,1389.12,415.71Z"/><path class="cls-3" d="M1632.54,551.4a4.46,4.46,0,0,1-1,2.89,7.27,7.27,0,0,1-3.45,2.08,33.13,33.13,0,0,1-6.41,1.28,87.53,87.53,0,0,1-10.1.48,91.71,91.71,0,0,1-10.35-.48,31.56,31.56,0,0,1-6.42-1.28,7.24,7.24,0,0,1-3.36-2.08,4.46,4.46,0,0,1-1.05-2.89V467.52h-77.62V551.4a4.66,4.66,0,0,1-1,2.89,6.74,6.74,0,0,1-3.36,2.08,33.41,33.41,0,0,1-6.42,1.28,109.15,109.15,0,0,1-20.45,0,33.32,33.32,0,0,1-6.49-1.28,7.27,7.27,0,0,1-3.45-2.08,4.45,4.45,0,0,1-1-2.89v-196a4.45,4.45,0,0,1,1-2.89,7.28,7.28,0,0,1,3.45-2.09,34.09,34.09,0,0,1,6.49-1.28,109.15,109.15,0,0,1,20.45,0,34.2,34.2,0,0,1,6.42,1.28,6.75,6.75,0,0,1,3.36,2.09,4.66,4.66,0,0,1,1,2.89v76.18h77.62V355.41a4.46,4.46,0,0,1,1.05-2.89,7.25,7.25,0,0,1,3.36-2.09,32.26,32.26,0,0,1,6.42-1.28,91.71,91.71,0,0,1,10.35-.48,87.53,87.53,0,0,1,10.1.48,33.9,33.9,0,0,1,6.41,1.28,7.28,7.28,0,0,1,3.45,2.09,4.46,4.46,0,0,1,1,2.89Z"/><path class="cls-3" d="M1805.38,540.65a64.17,64.17,0,0,1-.4,7.78,20.26,20.26,0,0,1-1.2,5.05,6.5,6.5,0,0,1-2,2.81,4.35,4.35,0,0,1-2.65.88H1694.87A13.11,13.11,0,0,1,1686,554q-3.6-3.12-3.61-10.18V362.94q0-7.05,3.61-10.18a13.11,13.11,0,0,1,8.9-3.13h103.61a4.33,4.33,0,0,1,2.57.8,6.19,6.19,0,0,1,1.92,2.81,21.3,21.3,0,0,1,1.21,5.13,66,66,0,0,1,.4,7.94,62.6,62.6,0,0,1-.4,7.62A19.79,19.79,0,0,1,1803,379a6.74,6.74,0,0,1-1.92,2.81,4,4,0,0,1-2.57.88h-74.1v50.68h62.72a4.35,4.35,0,0,1,2.64.89,6.61,6.61,0,0,1,2,2.72,19.11,19.11,0,0,1,1.2,5,73.54,73.54,0,0,1,0,15.32,18.83,18.83,0,0,1-1.2,4.89,5.92,5.92,0,0,1-2,2.65,4.61,4.61,0,0,1-2.64.8h-62.72v58.54h74.74a4.42,4.42,0,0,1,2.65.88,6.56,6.56,0,0,1,2,2.81,20.37,20.37,0,0,1,1.2,5A64.4,64.4,0,0,1,1805.38,540.65Z"/><path class="cls-3" d="M1985.28,367a66.26,66.26,0,0,1-.4,7.94,22,22,0,0,1-1.2,5.3,7.14,7.14,0,0,1-2,3,4.14,4.14,0,0,1-2.64,1h-52V551.4a4.5,4.5,0,0,1-1,2.89,7.37,7.37,0,0,1-3.45,2.08,33.29,33.29,0,0,1-6.5,1.28,108.19,108.19,0,0,1-20.36,0,33.29,33.29,0,0,1-6.5-1.28,7.37,7.37,0,0,1-3.45-2.08,4.45,4.45,0,0,1-1-2.89V384.12h-52a4,4,0,0,1-2.72-1,7.56,7.56,0,0,1-1.93-3,21.55,21.55,0,0,1-1.2-5.3,66.26,66.26,0,0,1-.4-7.94,70.28,70.28,0,0,1,.4-8.18,21.76,21.76,0,0,1,1.2-5.37,6.91,6.91,0,0,1,1.93-2.89,4.29,4.29,0,0,1,2.72-.88H1979a4.41,4.41,0,0,1,2.64.88,6.55,6.55,0,0,1,2,2.89,22.23,22.23,0,0,1,1.2,5.37A70.28,70.28,0,0,1,1985.28,367Z"/></g></g></svg>